<svg xmlns="http://www.w3.org/2000/svg" viewBox="0 0 1422 800">
      <g
        fill="none"
        stroke="hsl(180, 69%, 30%)"
        strokeLinecap="round"
        strokeWidth="6.5"
      >
        <path d="M46 0L0 46"></path>
        <path d="M46 0L92 46"></path>
        <path d="M92 0L138 46"></path>
        <path d="M184 0L138 46"></path>
        <path d="M230 0L184 46"></path>
        <path d="M276 0L230 46"></path>
        <path d="M322 0L276 46"></path>
        <path d="M322 0L368 46"></path>
        <path d="M414 0L368 46"></path>
        <path d="M414 0L460 46"></path>
        <path d="M460 0L506 46"></path>
        <path d="M552 0L506 46"></path>
        <path d="M598 0L552 46"></path>
        <path d="M644 0L598 46"></path>
        <path d="M690 0L644 46"></path>
        <path d="M736 0L690 46"></path>
        <path d="M782 0L736 46"></path>
        <path d="M828 0L782 46"></path>
        <path d="M874 0L828 46"></path>
        <path d="M874 0L920 46"></path>
        <path d="M920 0L966 46"></path>
        <path d="M966 0L1012 46"></path>
        <path d="M1012 0L1058 46"></path>
        <path d="M1058 0L1104 46"></path>
        <path d="M1150 0L1104 46"></path>
        <path d="M1196 0L1150 46"></path>
        <path d="M1196 0L1242 46"></path>
        <path d="M1242 0L1288 46"></path>
        <path d="M1334 0L1288 46"></path>
        <path d="M1380 0L1334 46"></path>
        <path d="M1426 0L1380 46"></path>
        <path d="M0 46L46 92"></path>
        <path d="M92 46L46 92"></path>
        <path d="M138 46L92 92"></path>
        <path d="M184 46L138 92"></path>
        <path d="M230 46L184 92"></path>
        <path d="M230 46L276 92"></path>
        <path d="M276 46L322 92"></path>
        <path d="M368 46L322 92"></path>
        <path d="M414 46L368 92"></path>
        <path d="M460 46L414 92"></path>
        <path d="M460 46L506 92"></path>
        <path d="M506 46L552 92"></path>
        <path d="M598 46L552 92"></path>
        <path d="M598 46L644 92"></path>
        <path d="M690 46L644 92"></path>
        <path d="M690 46L736 92"></path>
        <path d="M782 46L736 92"></path>
        <path d="M782 46L828 92"></path>
        <path d="M874 46L828 92"></path>
        <path d="M920 46L874 92"></path>
        <path d="M966 46L920 92"></path>
        <path d="M966 46L1012 92"></path>
        <path d="M1058 46L1012 92"></path>
        <path d="M1104 46L1058 92"></path>
        <path d="M1150 46L1104 92"></path>
        <path d="M1150 46L1196 92"></path>
        <path d="M1242 46L1196 92"></path>
        <path d="M1242 46L1288 92"></path>
        <path d="M1288 46L1334 92"></path>
        <path d="M1380 46L1334 92"></path>
        <path d="M1426 46L1380 92"></path>
        <path d="M0 92L46 138"></path>
        <path d="M46 92L92 138"></path>
        <path d="M92 92L138 138"></path>
        <path d="M138 92L184 138"></path>
        <path d="M230 92L184 138"></path>
        <path d="M276 92L230 138"></path>
        <path d="M276 92L322 138"></path>
        <path d="M322 92L368 138"></path>
        <path d="M414 92L368 138"></path>
        <path d="M460 92L414 138"></path>
        <path d="M460 92L506 138"></path>
        <path d="M506 92L552 138"></path>
        <path d="M552 92L598 138"></path>
        <path d="M598 92L644 138"></path>
        <path d="M690 92L644 138"></path>
        <path d="M736 92L690 138"></path>
        <path d="M782 92L736 138"></path>
        <path d="M828 92L782 138"></path>
        <path d="M828 92L874 138"></path>
        <path d="M920 92L874 138"></path>
        <path d="M966 92L920 138"></path>
        <path d="M966 92L1012 138"></path>
        <path d="M1058 92L1012 138"></path>
        <path d="M1104 92L1058 138"></path>
        <path d="M1150 92L1104 138"></path>
        <path d="M1150 92L1196 138"></path>
        <path d="M1196 92L1242 138"></path>
        <path d="M1242 92L1288 138"></path>
        <path d="M1334 92L1288 138"></path>
        <path d="M1380 92L1334 138"></path>
        <path d="M1380 92L1426 138"></path>
        <path d="M46 138L0 184"></path>
        <path d="M92 138L46 184"></path>
        <path d="M138 138L92 184"></path>
        <path d="M184 138L138 184"></path>
        <path d="M230 138L184 184"></path>
        <path d="M230 138L276 184"></path>
        <path d="M276 138L322 184"></path>
        <path d="M368 138L322 184"></path>
        <path d="M414 138L368 184"></path>
        <path d="M414 138L460 184"></path>
        <path d="M460 138L506 184"></path>
        <path d="M552 138L506 184"></path>
        <path d="M598 138L552 184"></path>
        <path d="M644 138L598 184"></path>
        <path d="M690 138L644 184"></path>
        <path d="M736 138L690 184"></path>
        <path d="M736 138L782 184"></path>
        <path d="M782 138L828 184"></path>
        <path d="M828 138L874 184"></path>
        <path d="M920 138L874 184"></path>
        <path d="M966 138L920 184"></path>
        <path d="M1012 138L966 184"></path>
        <path d="M1012 138L1058 184"></path>
        <path d="M1104 138L1058 184"></path>
        <path d="M1150 138L1104 184"></path>
        <path d="M1196 138L1150 184"></path>
        <path d="M1196 138L1242 184"></path>
        <path d="M1288 138L1242 184"></path>
        <path d="M1334 138L1288 184"></path>
        <path d="M1380 138L1334 184"></path>
        <path d="M1380 138L1426 184"></path>
        <path d="M0 184L46 230"></path>
        <path d="M92 184L46 230"></path>
        <path d="M138 184L92 230"></path>
        <path d="M184 184L138 230"></path>
        <path d="M184 184L230 230"></path>
        <path d="M276 184L230 230"></path>
        <path d="M322 184L276 230"></path>
        <path d="M368 184L322 230"></path>
        <path d="M368 184L414 230"></path>
        <path d="M414 184L460 230"></path>
        <path d="M506 184L460 230"></path>
        <path d="M552 184L506 230"></path>
        <path d="M552 184L598 230"></path>
        <path d="M598 184L644 230"></path>
        <path d="M644 184L690 230"></path>
        <path d="M690 184L736 230"></path>
        <path d="M736 184L782 230"></path>
        <path d="M828 184L782 230"></path>
        <path d="M874 184L828 230"></path>
        <path d="M920 184L874 230"></path>
        <path d="M966 184L920 230"></path>
        <path d="M1012 184L966 230"></path>
        <path d="M1012 184L1058 230"></path>
        <path d="M1104 184L1058 230"></path>
        <path d="M1104 184L1150 230"></path>
        <path d="M1150 184L1196 230"></path>
        <path d="M1196 184L1242 230"></path>
        <path d="M1242 184L1288 230"></path>
        <path d="M1288 184L1334 230"></path>
        <path d="M1380 184L1334 230"></path>
        <path d="M1380 184L1426 230"></path>
        <path d="M46 230L0 276"></path>
        <path d="M92 230L46 276"></path>
        <path d="M92 230L138 276"></path>
        <path d="M184 230L138 276"></path>
        <path d="M184 230L230 276"></path>
        <path d="M230 230L276 276"></path>
        <path d="M276 230L322 276"></path>
        <path d="M368 230L322 276"></path>
        <path d="M414 230L368 276"></path>
        <path d="M414 230L460 276"></path>
        <path d="M506 230L460 276"></path>
        <path d="M506 230L552 276"></path>
        <path d="M598 230L552 276"></path>
        <path d="M598 230L644 276"></path>
        <path d="M644 230L690 276"></path>
        <path d="M690 230L736 276"></path>
        <path d="M782 230L736 276"></path>
        <path d="M782 230L828 276"></path>
        <path d="M874 230L828 276"></path>
        <path d="M920 230L874 276"></path>
        <path d="M966 230L920 276"></path>
        <path d="M1012 230L966 276"></path>
        <path d="M1058 230L1012 276"></path>
        <path d="M1104 230L1058 276"></path>
        <path d="M1150 230L1104 276"></path>
        <path d="M1150 230L1196 276"></path>
        <path d="M1242 230L1196 276"></path>
        <path d="M1242 230L1288 276"></path>
        <path d="M1288 230L1334 276"></path>
        <path d="M1334 230L1380 276"></path>
        <path d="M1426 230L1380 276"></path>
        <path d="M46 276L0 322"></path>
        <path d="M92 276L46 322"></path>
        <path d="M92 276L138 322"></path>
        <path d="M138 276L184 322"></path>
        <path d="M230 276L184 322"></path>
        <path d="M230 276L276 322"></path>
        <path d="M322 276L276 322"></path>
        <path d="M322 276L368 322"></path>
        <path d="M414 276L368 322"></path>
        <path d="M460 276L414 322"></path>
        <path d="M506 276L460 322"></path>
        <path d="M506 276L552 322"></path>
        <path d="M552 276L598 322"></path>
        <path d="M598 276L644 322"></path>
        <path d="M690 276L644 322"></path>
        <path d="M690 276L736 322"></path>
        <path d="M782 276L736 322"></path>
        <path d="M828 276L782 322"></path>
        <path d="M828 276L874 322"></path>
        <path d="M920 276L874 322"></path>
        <path d="M966 276L920 322"></path>
        <path d="M1012 276L966 322"></path>
        <path d="M1012 276L1058 322"></path>
        <path d="M1104 276L1058 322"></path>
        <path d="M1104 276L1150 322"></path>
        <path d="M1196 276L1150 322"></path>
        <path d="M1242 276L1196 322"></path>
        <path d="M1288 276L1242 322"></path>
        <path d="M1288 276L1334 322"></path>
        <path d="M1380 276L1334 322"></path>
        <path d="M1380 276L1426 322"></path>
        <path d="M46 322L0 368"></path>
        <path d="M92 322L46 368"></path>
        <path d="M138 322L92 368"></path>
        <path d="M138 322L184 368"></path>
        <path d="M184 322L230 368"></path>
        <path d="M276 322L230 368"></path>
        <path d="M322 322L276 368"></path>
        <path d="M322 322L368 368"></path>
        <path d="M368 322L414 368"></path>
        <path d="M414 322L460 368"></path>
        <path d="M460 322L506 368"></path>
        <path d="M506 322L552 368"></path>
        <path d="M552 322L598 368"></path>
        <path d="M598 322L644 368"></path>
        <path d="M690 322L644 368"></path>
        <path d="M736 322L690 368"></path>
        <path d="M782 322L736 368"></path>
        <path d="M782 322L828 368"></path>
        <path d="M874 322L828 368"></path>
        <path d="M920 322L874 368"></path>
        <path d="M966 322L920 368"></path>
        <path d="M966 322L1012 368"></path>
        <path d="M1058 322L1012 368"></path>
        <path d="M1058 322L1104 368"></path>
        <path d="M1150 322L1104 368"></path>
        <path d="M1196 322L1150 368"></path>
        <path d="M1196 322L1242 368"></path>
        <path d="M1288 322L1242 368"></path>
        <path d="M1334 322L1288 368"></path>
        <path d="M1380 322L1334 368"></path>
        <path d="M1426 322L1380 368"></path>
        <path d="M0 368L46 414"></path>
        <path d="M92 368L46 414"></path>
        <path d="M92 368L138 414"></path>
        <path d="M184 368L138 414"></path>
        <path d="M230 368L184 414"></path>
        <path d="M276 368L230 414"></path>
        <path d="M276 368L322 414"></path>
        <path d="M322 368L368 414"></path>
        <path d="M368 368L414 414"></path>
        <path d="M460 368L414 414"></path>
        <path d="M506 368L460 414"></path>
        <path d="M552 368L506 414"></path>
        <path d="M598 368L552 414"></path>
        <path d="M644 368L598 414"></path>
        <path d="M644 368L690 414"></path>
        <path d="M690 368L736 414"></path>
        <path d="M736 368L782 414"></path>
        <path d="M828 368L782 414"></path>
        <path d="M874 368L828 414"></path>
        <path d="M920 368L874 414"></path>
        <path d="M920 368L966 414"></path>
        <path d="M1012 368L966 414"></path>
        <path d="M1012 368L1058 414"></path>
        <path d="M1104 368L1058 414"></path>
        <path d="M1104 368L1150 414"></path>
        <path d="M1150 368L1196 414"></path>
        <path d="M1242 368L1196 414"></path>
        <path d="M1288 368L1242 414"></path>
        <path d="M1288 368L1334 414"></path>
        <path d="M1380 368L1334 414"></path>
        <path d="M1426 368L1380 414"></path>
        <path d="M0 414L46 460"></path>
        <path d="M92 414L46 460"></path>
        <path d="M138 414L92 460"></path>
        <path d="M184 414L138 460"></path>
        <path d="M230 414L184 460"></path>
        <path d="M230 414L276 460"></path>
        <path d="M322 414L276 460"></path>
        <path d="M368 414L322 460"></path>
        <path d="M414 414L368 460"></path>
        <path d="M460 414L414 460"></path>
        <path d="M506 414L460 460"></path>
        <path d="M552 414L506 460"></path>
        <path d="M552 414L598 460"></path>
        <path d="M598 414L644 460"></path>
        <path d="M644 414L690 460"></path>
        <path d="M736 414L690 460"></path>
        <path d="M736 414L782 460"></path>
        <path d="M782 414L828 460"></path>
        <path d="M874 414L828 460"></path>
        <path d="M920 414L874 460"></path>
        <path d="M966 414L920 460"></path>
        <path d="M1012 414L966 460"></path>
        <path d="M1012 414L1058 460"></path>
        <path d="M1058 414L1104 460"></path>
        <path d="M1150 414L1104 460"></path>
        <path d="M1150 414L1196 460"></path>
        <path d="M1242 414L1196 460"></path>
        <path d="M1242 414L1288 460"></path>
        <path d="M1288 414L1334 460"></path>
        <path d="M1380 414L1334 460"></path>
        <path d="M1380 414L1426 460"></path>
        <path d="M46 460L0 506"></path>
        <path d="M92 460L46 506"></path>
        <path d="M138 460L92 506"></path>
        <path d="M138 460L184 506"></path>
        <path d="M230 460L184 506"></path>
        <path d="M276 460L230 506"></path>
        <path d="M276 460L322 506"></path>
        <path d="M322 460L368 506"></path>
        <path d="M414 460L368 506"></path>
        <path d="M460 460L414 506"></path>
        <path d="M506 460L460 506"></path>
        <path d="M506 460L552 506"></path>
        <path d="M598 460L552 506"></path>
        <path d="M644 460L598 506"></path>
        <path d="M690 460L644 506"></path>
        <path d="M690 460L736 506"></path>
        <path d="M782 460L736 506"></path>
        <path d="M828 460L782 506"></path>
        <path d="M874 460L828 506"></path>
        <path d="M920 460L874 506"></path>
        <path d="M966 460L920 506"></path>
        <path d="M1012 460L966 506"></path>
        <path d="M1058 460L1012 506"></path>
        <path d="M1058 460L1104 506"></path>
        <path d="M1104 460L1150 506"></path>
        <path d="M1196 460L1150 506"></path>
        <path d="M1242 460L1196 506"></path>
        <path d="M1288 460L1242 506"></path>
        <path d="M1334 460L1288 506"></path>
        <path d="M1334 460L1380 506"></path>
        <path d="M1426 460L1380 506"></path>
        <path d="M46 506L0 552"></path>
        <path d="M46 506L92 552"></path>
        <path d="M92 506L138 552"></path>
        <path d="M184 506L138 552"></path>
        <path d="M230 506L184 552"></path>
        <path d="M276 506L230 552"></path>
        <path d="M276 506L322 552"></path>
        <path d="M322 506L368 552"></path>
        <path d="M368 506L414 552"></path>
        <path d="M460 506L414 552"></path>
        <path d="M506 506L460 552"></path>
        <path d="M506 506L552 552"></path>
        <path d="M598 506L552 552"></path>
        <path d="M644 506L598 552"></path>
        <path d="M690 506L644 552"></path>
        <path d="M690 506L736 552"></path>
        <path d="M736 506L782 552"></path>
        <path d="M828 506L782 552"></path>
        <path d="M874 506L828 552"></path>
        <path d="M920 506L874 552"></path>
        <path d="M966 506L920 552"></path>
        <path d="M966 506L1012 552"></path>
        <path d="M1058 506L1012 552"></path>
        <path d="M1058 506L1104 552"></path>
        <path d="M1150 506L1104 552"></path>
        <path d="M1150 506L1196 552"></path>
        <path d="M1196 506L1242 552"></path>
        <path d="M1242 506L1288 552"></path>
        <path d="M1334 506L1288 552"></path>
        <path d="M1334 506L1380 552"></path>
        <path d="M1380 506L1426 552"></path>
        <path d="M46 552L0 598"></path>
        <path d="M92 552L46 598"></path>
        <path d="M138 552L92 598"></path>
        <path d="M138 552L184 598"></path>
        <path d="M230 552L184 598"></path>
        <path d="M276 552L230 598"></path>
        <path d="M322 552L276 598"></path>
        <path d="M322 552L368 598"></path>
        <path d="M368 552L414 598"></path>
        <path d="M460 552L414 598"></path>
        <path d="M506 552L460 598"></path>
        <path d="M552 552L506 598"></path>
        <path d="M552 552L598 598"></path>
        <path d="M598 552L644 598"></path>
        <path d="M690 552L644 598"></path>
        <path d="M736 552L690 598"></path>
        <path d="M782 552L736 598"></path>
        <path d="M828 552L782 598"></path>
        <path d="M874 552L828 598"></path>
        <path d="M874 552L920 598"></path>
        <path d="M966 552L920 598"></path>
        <path d="M966 552L1012 598"></path>
        <path d="M1058 552L1012 598"></path>
        <path d="M1104 552L1058 598"></path>
        <path d="M1150 552L1104 598"></path>
        <path d="M1150 552L1196 598"></path>
        <path d="M1242 552L1196 598"></path>
        <path d="M1288 552L1242 598"></path>
        <path d="M1334 552L1288 598"></path>
        <path d="M1380 552L1334 598"></path>
        <path d="M1380 552L1426 598"></path>
        <path d="M46 598L0 644"></path>
        <path d="M92 598L46 644"></path>
        <path d="M138 598L92 644"></path>
        <path d="M184 598L138 644"></path>
        <path d="M230 598L184 644"></path>
        <path d="M276 598L230 644"></path>
        <path d="M276 598L322 644"></path>
        <path d="M368 598L322 644"></path>
        <path d="M414 598L368 644"></path>
        <path d="M414 598L460 644"></path>
        <path d="M506 598L460 644"></path>
        <path d="M506 598L552 644"></path>
        <path d="M552 598L598 644"></path>
        <path d="M598 598L644 644"></path>
        <path d="M690 598L644 644"></path>
        <path d="M690 598L736 644"></path>
        <path d="M782 598L736 644"></path>
        <path d="M828 598L782 644"></path>
        <path d="M874 598L828 644"></path>
        <path d="M874 598L920 644"></path>
        <path d="M966 598L920 644"></path>
        <path d="M966 598L1012 644"></path>
        <path d="M1058 598L1012 644"></path>
        <path d="M1058 598L1104 644"></path>
        <path d="M1150 598L1104 644"></path>
        <path d="M1196 598L1150 644"></path>
        <path d="M1242 598L1196 644"></path>
        <path d="M1242 598L1288 644"></path>
        <path d="M1334 598L1288 644"></path>
        <path d="M1380 598L1334 644"></path>
        <path d="M1426 598L1380 644"></path>
        <path d="M0 644L46 690"></path>
        <path d="M46 644L92 690"></path>
        <path d="M92 644L138 690"></path>
        <path d="M138 644L184 690"></path>
        <path d="M230 644L184 690"></path>
        <path d="M276 644L230 690"></path>
        <path d="M276 644L322 690"></path>
        <path d="M368 644L322 690"></path>
        <path d="M414 644L368 690"></path>
        <path d="M460 644L414 690"></path>
        <path d="M506 644L460 690"></path>
        <path d="M552 644L506 690"></path>
        <path d="M598 644L552 690"></path>
        <path d="M598 644L644 690"></path>
        <path d="M690 644L644 690"></path>
        <path d="M690 644L736 690"></path>
        <path d="M782 644L736 690"></path>
        <path d="M828 644L782 690"></path>
        <path d="M828 644L874 690"></path>
        <path d="M874 644L920 690"></path>
        <path d="M920 644L966 690"></path>
        <path d="M1012 644L966 690"></path>
        <path d="M1012 644L1058 690"></path>
        <path d="M1104 644L1058 690"></path>
        <path d="M1150 644L1104 690"></path>
        <path d="M1150 644L1196 690"></path>
        <path d="M1242 644L1196 690"></path>
        <path d="M1288 644L1242 690"></path>
        <path d="M1288 644L1334 690"></path>
        <path d="M1380 644L1334 690"></path>
        <path d="M1380 644L1426 690"></path>
        <path d="M0 690L46 736"></path>
        <path d="M46 690L92 736"></path>
        <path d="M138 690L92 736"></path>
        <path d="M184 690L138 736"></path>
        <path d="M230 690L184 736"></path>
        <path d="M276 690L230 736"></path>
        <path d="M276 690L322 736"></path>
        <path d="M368 690L322 736"></path>
        <path d="M368 690L414 736"></path>
        <path d="M460 690L414 736"></path>
        <path d="M506 690L460 736"></path>
        <path d="M552 690L506 736"></path>
        <path d="M598 690L552 736"></path>
        <path d="M644 690L598 736"></path>
        <path d="M690 690L644 736"></path>
        <path d="M736 690L690 736"></path>
        <path d="M782 690L736 736"></path>
        <path d="M828 690L782 736"></path>
        <path d="M874 690L828 736"></path>
        <path d="M920 690L874 736"></path>
        <path d="M966 690L920 736"></path>
        <path d="M966 690L1012 736"></path>
        <path d="M1012 690L1058 736"></path>
        <path d="M1058 690L1104 736"></path>
        <path d="M1104 690L1150 736"></path>
        <path d="M1150 690L1196 736"></path>
        <path d="M1196 690L1242 736"></path>
        <path d="M1288 690L1242 736"></path>
        <path d="M1288 690L1334 736"></path>
        <path d="M1334 690L1380 736"></path>
        <path d="M1380 690L1426 736"></path>
        <path d="M0 736L46 782"></path>
        <path d="M92 736L46 782"></path>
        <path d="M92 736L138 782"></path>
        <path d="M138 736L184 782"></path>
        <path d="M230 736L184 782"></path>
        <path d="M230 736L276 782"></path>
        <path d="M276 736L322 782"></path>
        <path d="M322 736L368 782"></path>
        <path d="M368 736L414 782"></path>
        <path d="M460 736L414 782"></path>
        <path d="M506 736L460 782"></path>
        <path d="M506 736L552 782"></path>
        <path d="M598 736L552 782"></path>
        <path d="M644 736L598 782"></path>
        <path d="M644 736L690 782"></path>
        <path d="M736 736L690 782"></path>
        <path d="M736 736L782 782"></path>
        <path d="M828 736L782 782"></path>
        <path d="M874 736L828 782"></path>
        <path d="M874 736L920 782"></path>
        <path d="M920 736L966 782"></path>
        <path d="M1012 736L966 782"></path>
        <path d="M1012 736L1058 782"></path>
        <path d="M1104 736L1058 782"></path>
        <path d="M1104 736L1150 782"></path>
        <path d="M1150 736L1196 782"></path>
        <path d="M1242 736L1196 782"></path>
        <path d="M1242 736L1288 782"></path>
        <path d="M1334 736L1288 782"></path>
        <path d="M1334 736L1380 782"></path>
        <path d="M1380 736L1426 782"></path>
        <path d="M0 782L46 828"></path>
        <path d="M46 782L92 828"></path>
        <path d="M138 782L92 828"></path>
        <path d="M184 782L138 828"></path>
        <path d="M184 782L230 828"></path>
        <path d="M276 782L230 828"></path>
        <path d="M276 782L322 828"></path>
        <path d="M368 782L322 828"></path>
        <path d="M414 782L368 828"></path>
        <path d="M460 782L414 828"></path>
        <path d="M506 782L460 828"></path>
        <path d="M506 782L552 828"></path>
        <path d="M598 782L552 828"></path>
        <path d="M598 782L644 828"></path>
        <path d="M644 782L690 828"></path>
        <path d="M690 782L736 828"></path>
        <path d="M782 782L736 828"></path>
        <path d="M782 782L828 828"></path>
        <path d="M828 782L874 828"></path>
        <path d="M874 782L920 828"></path>
        <path d="M966 782L920 828"></path>
        <path d="M966 782L1012 828"></path>
        <path d="M1012 782L1058 828"></path>
        <path d="M1058 782L1104 828"></path>
        <path d="M1150 782L1104 828"></path>
        <path d="M1150 782L1196 828"></path>
        <path d="M1196 782L1242 828"></path>
        <path d="M1288 782L1242 828"></path>
        <path d="M1334 782L1288 828"></path>
        <path d="M1334 782L1380 828"></path>
        <path d="M1426 782L1380 828"></path>
      </g>
    </svg>